# xmcd
# 
# Track frame offsets:
#     150
#     13579
#     22257
#     31754
#     44514
#     56573
#     68451
#     79917
#     89743
#     101150
#     113366
#     129597
#     138852
#     151256
#     164836
# 
# Disc length: 2369
# 
# Revision: 3
# Processed by: cddbd v1.5.2PL0 Copyright (c) Steve Scherf et al.
# Submitted via: fre:ac v1.0.17
# 
DISCID=c4093f0f
DTITLE=Various Artist - Classic Country 'Hard To Find Hits' (disk1)
DYEAR=2003
DGENRE=Country
TTITLE0=Stuart Hamblen - This Ole House
TTITLE1=Don Gibson - Blue Blue Day
TTITLE2=Burl Ives - A Little Bitty Tear
TTITLE3=Johnny Tillotson - It Keeps Right On A-Hurtin'
TTITLE4=Bobby Edwards - You're The Reason
TTITLE5=Wanda Jackson - Right Or Wrong
TTITLE6=Wynn Stewart - It's Such A Pretty World Today
TTITLE7=Ned Miller - From A Jack To A King
TTITLE8=Billy Grammer - Gotta Travel On
TTITLE9=Bobby Bare - 500 Miles Away From Home
TTITLE10=Lorne Greene - Ringo
TTITLE11=Bob Luman - Let's Think About Living
TTITLE12=Hawkshaw Hawkins - Lonesome 7-7203
TTITLE13=The Davis Sisters - I Forgot More Than You'll Ever Know
TTITLE14=Jack Greene - Statue Of A Fool
EXTD=Time-Life 19625-2 TCD909
EXTT0=
EXTT1=
EXTT2=
EXTT3=
EXTT4=
EXTT5=
EXTT6=
EXTT7=
EXTT8=
EXTT9=
EXTT10=
EXTT11=
EXTT12=
EXTT13=
EXTT14=
PLAYORDER=
